<?xml version="1.0" standalone="no"?>
<!DOCTYPE svg PUBLIC "-//W3C//DTD SVG 20010904//EN"
 "http://www.w3.org/TR/2001/REC-SVG-20010904/DTD/svg10.dtd">
<svg version="1.0" xmlns="http://www.w3.org/2000/svg"
 width="400.000000pt" height="400.000000pt" viewBox="0 0 400.000000 400.000000"
 preserveAspectRatio="xMidYMid meet">
<metadata>
Created by potrace 1.11, written by Peter Selinger 2001-2013
</metadata>
<g transform="translate(0.000000,400.000000) scale(0.100000,-0.100000)"
fill="#000000" stroke="none">
<path d="M2300 3350 c0 -6 -5 -8 -12 -4 -6 4 -8 3 -4 -4 3 -6 2 -13 -4 -17 -6
-4 -8 -11 -5 -16 4 -5 -1 -9 -10 -9 -9 0 -13 -4 -10 -10 3 -5 1 -10 -5 -10 -6
0 -8 -4 -5 -10 3 -5 1 -10 -5 -10 -6 0 -9 -4 -6 -9 3 -5 -1 -11 -9 -15 -8 -3
-15 -12 -15 -21 0 -8 -4 -15 -9 -15 -8 0 -24 -37 -22 -52 1 -5 -6 -8 -14 -8
-9 0 -12 -6 -8 -17 4 -10 2 -14 -4 -10 -10 6 -27 -27 -24 -45 1 -5 -4 -8 -9
-8 -6 0 -15 -11 -20 -25 -5 -14 -14 -25 -20 -25 -6 0 -8 -4 -5 -10 3 -5 1 -10
-5 -10 -6 0 -8 -4 -5 -10 3 -5 3 -10 -2 -10 -4 0 -14 -14 -21 -30 -8 -18 -18
-27 -25 -23 -7 3 -9 3 -5 -2 6 -7 -16 -59 -32 -75 -3 -3 -12 -14 -20 -24 -13
-18 -13 -19 0 -12 8 4 6 -1 -6 -11 -11 -10 -28 -35 -38 -55 -9 -21 -21 -38
-26 -38 -6 0 -10 -7 -10 -15 0 -8 -4 -15 -8 -15 -5 0 -15 -16 -22 -36 -8 -20
-24 -42 -34 -50 -11 -8 -16 -14 -11 -14 4 0 -2 -12 -16 -27 -18 -21 -19 -24
-4 -13 11 8 7 0 -9 -18 -17 -18 -26 -32 -20 -32 5 0 2 -5 -6 -10 -8 -5 -15
-15 -15 -22 -1 -7 -7 -12 -14 -10 -7 1 -10 -2 -7 -7 4 -5 -1 -16 -10 -25 -8
-9 -12 -20 -9 -26 3 -5 3 -10 -2 -10 -4 0 -17 -12 -27 -27 -13 -17 -14 -24 -5
-19 8 4 5 0 -6 -9 -11 -9 -19 -21 -17 -26 1 -5 -5 -12 -13 -15 -8 -3 -12 -10
-9 -15 3 -5 -1 -12 -10 -15 -9 -3 -12 -12 -9 -21 4 -11 2 -14 -5 -9 -7 4 -12
1 -12 -7 0 -7 -9 -23 -19 -34 -11 -12 -17 -24 -14 -27 4 -3 -2 -13 -13 -21
-10 -8 -15 -15 -11 -15 9 0 -18 -30 -27 -30 -3 0 -6 7 -6 15 0 8 -8 15 -17 15
-15 0 -16 2 -3 10 13 8 12 10 -2 10 -11 0 -18 8 -18 19 0 10 -7 21 -15 25 -9
3 -12 12 -8 22 4 12 3 15 -5 10 -7 -4 -12 -1 -12 8 0 9 -5 16 -11 16 -5 0 -7
5 -4 10 3 6 1 10 -5 10 -6 0 -9 4 -6 9 3 5 -1 12 -10 15 -8 3 -12 10 -9 16 3
5 1 10 -4 10 -6 0 -11 5 -11 10 0 12 -15 32 -42 57 -9 9 -14 22 -11 29 3 8 -1
14 -8 14 -7 0 -9 3 -6 6 4 4 -1 14 -11 23 -9 9 -18 23 -20 31 -2 8 -10 23 -19
32 -8 9 -12 21 -9 27 4 6 -2 8 -14 6 -11 -2 -20 2 -20 8 0 7 -4 7 -9 -3 -6 -8
-7 -18 -5 -22 3 -4 0 -8 -5 -8 -6 0 -11 -7 -11 -16 0 -8 -4 -12 -10 -9 -6 4
-10 -5 -10 -20 0 -14 -4 -23 -10 -20 -5 3 -12 -6 -16 -20 -3 -14 -10 -25 -15
-25 -5 0 -9 -7 -9 -15 0 -8 -4 -15 -10 -15 -5 0 -10 -5 -10 -10 0 -12 -46 -86
-72 -116 -11 -12 -20 -31 -21 -42 0 -11 -6 -20 -11 -19 -6 1 -10 -4 -11 -11 0
-7 -6 -16 -13 -21 -8 -4 -10 -15 -6 -26 4 -10 3 -16 -2 -13 -9 6 -41 -22 -36
-32 1 -3 -4 -12 -12 -21 -8 -9 -17 -26 -21 -38 -3 -12 -11 -19 -16 -15 -6 3
-9 -2 -7 -12 2 -11 -2 -18 -9 -17 -7 2 -10 -4 -7 -12 4 -8 -1 -17 -10 -21 -9
-3 -13 -10 -10 -15 3 -5 0 -9 -5 -9 -6 0 -11 -5 -11 -11 0 -6 -13 -29 -28 -52
-16 -23 -31 -50 -35 -59 -4 -10 -11 -18 -17 -18 -6 0 -8 -4 -5 -10 3 -5 -4
-20 -17 -32 -13 -13 -24 -30 -26 -38 -2 -8 -9 -18 -15 -22 -7 -4 -8 -8 -4 -8
5 0 1 -7 -7 -16 -9 -8 -16 -21 -16 -29 0 -7 -7 -16 -16 -19 -8 -3 -12 -10 -9
-16 3 -5 1 -10 -4 -10 -6 0 -11 -6 -11 -14 0 -8 -4 -16 -9 -18 -5 -1 -11 -9
-13 -17 -2 -8 -11 -23 -20 -33 -10 -10 -18 -25 -18 -34 0 -8 -4 -13 -9 -10 -9
6 -36 -50 -32 -66 0 -5 -3 -8 -9 -8 -5 0 -17 -16 -26 -35 -9 -19 -21 -32 -27
-28 -6 3 -7 1 -3 -6 4 -6 0 -18 -8 -27 -9 -9 -13 -20 -10 -26 4 -7 2 -8 -4 -4
-7 4 -12 1 -12 -8 0 -9 -8 -16 -17 -16 -13 0 -15 -2 -5 -8 9 -7 8 -13 -8 -27
-11 -10 -17 -22 -14 -26 3 -5 -2 -12 -10 -15 -9 -3 -16 -12 -16 -20 0 -8 -5
-14 -11 -14 -5 0 -7 -5 -4 -10 3 -6 -1 -13 -10 -16 -9 -4 -14 -13 -11 -20 3
-8 1 -14 -4 -14 -5 0 -19 -20 -31 -45 -12 -24 -26 -42 -31 -39 -7 5 -12 -10
-9 -28 0 -5 -4 -8 -11 -8 -6 0 -8 -3 -5 -6 4 -4 -7 -24 -23 -44 -16 -20 -27
-40 -23 -44 3 -3 1 -6 -5 -6 -7 0 -12 -7 -12 -15 0 -8 -4 -15 -10 -15 -5 0
-10 -7 -10 -15 0 -8 -5 -15 -11 -15 -5 0 -7 -5 -4 -10 3 -6 -1 -13 -9 -16 -9
-3 -16 -12 -16 -20 0 -8 -5 -14 -12 -14 -6 0 -8 -3 -5 -7 4 -3 -1 -15 -10 -26
-11 -12 -12 -17 -4 -12 10 6 12 4 7 -4 -5 -7 -14 -10 -21 -7 -8 3 -12 -2 -11
-12 3 -16 137 -17 1987 -20 1091 -1 1990 0 1998 3 12 5 12 8 -1 23 -7 9 -20
29 -28 45 -7 15 -17 27 -22 27 -5 0 -7 4 -4 9 3 5 -1 12 -10 15 -9 4 -14 13
-10 22 3 8 2 12 -4 9 -5 -3 -12 6 -16 20 -3 14 -10 25 -15 25 -5 0 -9 6 -9 13
0 7 -9 23 -20 35 -11 12 -20 26 -20 32 0 6 -4 8 -10 5 -5 -3 -7 0 -5 7 3 8 -4
24 -15 36 -12 12 -18 27 -14 34 4 7 3 8 -4 4 -7 -4 -12 -1 -12 8 0 9 -4 16
-10 16 -5 0 -10 7 -10 15 0 8 -4 15 -10 15 -5 0 -10 7 -10 15 0 9 -5 21 -10
28 -22 25 -90 137 -90 147 0 5 -7 10 -15 10 -8 0 -12 6 -9 14 3 7 -2 16 -11
20 -9 3 -14 10 -11 14 3 5 -2 18 -10 28 -9 10 -12 13 -8 5 5 -9 3 -12 -5 -7
-6 4 -9 11 -6 16 3 5 0 14 -7 22 -7 7 -14 19 -16 27 -1 7 -9 20 -17 28 -8 8
-15 18 -15 23 0 5 -8 17 -19 27 -10 10 -22 29 -26 43 -4 14 -15 30 -24 37 -9
7 -12 13 -8 13 4 0 -1 10 -13 22 -11 12 -20 28 -20 35 0 7 -5 13 -11 13 -5 0
-8 4 -5 8 3 5 -5 19 -17 33 -12 14 -23 31 -25 38 -1 7 -9 19 -17 27 -7 8 -17
23 -20 34 -3 11 -11 20 -16 20 -6 0 -7 5 -4 10 3 6 -1 10 -9 10 -9 0 -16 5
-16 11 0 5 6 7 13 3 6 -4 2 4 -10 18 -13 13 -23 30 -23 36 0 7 -4 12 -10 12
-5 0 -10 7 -10 15 0 8 -5 15 -11 15 -5 0 -7 5 -4 10 3 6 0 10 -9 10 -9 0 -13
8 -12 25 2 13 0 23 -4 20 -3 -2 -14 5 -23 16 -9 10 -14 19 -11 19 4 0 1 6 -5
13 -6 8 -7 18 -3 22 4 5 2 5 -4 2 -10 -6 -40 39 -36 56 1 4 -3 7 -8 7 -6 0
-10 7 -10 16 0 8 -4 12 -10 9 -5 -3 -10 1 -10 9 0 8 -7 22 -16 31 -9 9 -14 18
-11 21 3 3 -6 17 -19 31 -13 14 -24 32 -24 39 0 8 -5 14 -11 14 -5 0 -8 4 -5
9 3 5 -1 12 -10 15 -8 3 -12 10 -9 16 3 6 -1 13 -10 16 -9 4 -14 13 -11 20 3
8 -1 14 -9 14 -8 0 -14 3 -13 8 3 9 -21 52 -39 70 -7 8 -11 18 -8 23 4 5 -1 9
-10 9 -9 0 -14 4 -10 9 3 5 -2 16 -11 25 -8 9 -12 20 -9 26 4 6 1 9 -7 8 -7
-2 -12 5 -12 14 1 10 -2 15 -7 12 -5 -3 -9 -1 -9 5 0 10 -39 73 -60 99 -6 7
-8 17 -4 24 4 6 3 8 -4 4 -6 -3 -13 3 -17 14 -3 11 -11 20 -16 20 -5 0 -8 3
-7 8 3 12 -24 62 -34 62 -4 0 -8 7 -8 15 0 8 -4 15 -10 15 -5 0 -10 9 -10 19
0 11 -9 26 -20 34 -11 8 -18 16 -15 19 3 3 -1 11 -10 18 -8 7 -15 21 -15 32 0
10 -4 17 -8 14 -4 -2 -14 4 -21 16 -10 16 -10 19 1 13 7 -5 3 2 -10 14 -12 12
-20 26 -17 32 4 5 1 9 -5 9 -6 0 -14 8 -17 18 -4 9 -13 23 -20 30 -7 8 -11 18
-8 23 4 5 -1 9 -9 9 -10 0 -13 6 -9 17 4 9 2 14 -3 11 -5 -4 -18 11 -28 33
-11 21 -23 39 -28 39 -5 0 -6 4 -3 10 3 5 -3 17 -15 27 -11 10 -20 23 -20 30
0 7 -5 13 -11 13 -5 0 -8 4 -4 9 3 5 1 12 -5 16 -5 3 -10 1 -10 -5z m15 -200
c-3 -5 -1 -10 6 -10 7 0 9 -3 6 -7 -4 -4 5 -20 20 -37 16 -17 19 -24 8 -16
-11 8 -2 -7 20 -34 22 -28 34 -46 26 -41 -10 5 -12 4 -7 -3 4 -7 14 -12 22
-12 8 0 13 -4 10 -9 -5 -8 44 -93 72 -126 4 -5 14 -24 22 -42 8 -17 18 -29 22
-27 4 3 8 -4 8 -14 0 -11 7 -25 15 -32 8 -7 13 -16 10 -20 -3 -4 2 -10 10 -14
8 -3 23 -22 33 -43 9 -21 23 -43 31 -49 8 -7 11 -16 6 -24 -5 -9 -4 -11 3 -6
7 4 12 1 12 -8 0 -8 8 -20 18 -25 9 -6 13 -11 8 -11 -5 0 -3 -7 4 -15 17 -21
20 -65 4 -65 -8 0 -14 -5 -14 -11 0 -6 -17 -28 -37 -49 -34 -34 -39 -36 -51
-21 -7 9 -11 10 -7 4 3 -7 0 -13 -7 -13 -18 1 -49 26 -41 33 3 4 -1 7 -10 7
-8 0 -19 9 -22 20 -4 11 -11 18 -16 15 -5 -3 -7 0 -5 7 2 7 -14 29 -37 48 -22
19 -37 28 -33 20 4 -8 1 -7 -7 3 -9 10 -21 15 -31 11 -9 -3 -16 -1 -16 5 0 6
-5 11 -11 11 -5 0 -7 -6 -3 -12 5 -10 4 -10 -6 -1 -9 8 -19 9 -31 2 -10 -5
-22 -8 -26 -7 -12 3 -83 -45 -83 -57 0 -6 -9 -17 -20 -25 -11 -8 -20 -18 -20
-23 0 -4 -12 -20 -26 -35 -15 -15 -23 -20 -20 -12 4 8 0 6 -8 -4 -12 -15 -16
-16 -17 -5 0 8 -2 9 -5 3 -8 -18 -44 -4 -44 17 0 11 -5 18 -11 17 -6 -2 -16 6
-22 17 -7 11 -18 24 -25 28 -7 5 -10 12 -7 18 3 5 -1 6 -10 3 -11 -5 -14 -2
-8 12 5 14 3 16 -12 10 -11 -4 -16 -4 -12 0 3 4 -6 18 -21 31 -15 13 -22 23
-16 21 7 -2 11 1 10 5 0 5 7 13 17 18 9 6 15 14 12 20 -4 5 -1 9 5 9 6 0 8 5
5 10 -3 6 -2 10 2 10 5 0 17 16 27 35 11 19 23 35 28 35 5 0 6 5 3 10 -3 6 -1
10 4 10 6 0 11 7 11 16 0 8 4 13 9 9 6 -3 8 4 6 15 -2 11 0 18 5 15 5 -3 12 6
16 20 3 14 10 25 14 25 4 0 15 16 24 35 9 19 20 35 25 35 4 0 8 6 8 13 0 6 21
43 46 80 26 37 41 65 34 61 -6 -4 -2 3 11 15 12 12 20 26 17 32 -4 5 -2 9 4 9
5 0 19 16 31 35 12 19 26 35 31 35 6 0 7 -4 4 -10z m-432 -724 c3 3 8 -3 11
-14 4 -11 13 -23 21 -26 8 -3 15 -12 15 -21 0 -8 4 -15 8 -15 5 0 15 -11 22
-25 8 -14 20 -23 27 -21 7 3 13 -1 13 -9 0 -8 3 -14 8 -14 18 3 33 -2 28 -9
-2 -4 12 -7 32 -7 20 1 43 -3 51 -9 11 -8 13 -8 8 0 -6 11 9 19 52 29 7 2 20
13 28 24 8 12 19 18 25 15 6 -4 8 -2 4 4 -3 6 4 18 16 26 12 9 17 16 10 16 -7
0 3 14 21 30 34 30 97 42 97 19 0 -5 4 -8 9 -5 5 3 14 -1 21 -9 7 -8 9 -15 4
-15 -5 0 -1 -5 9 -11 9 -6 15 -14 12 -20 -4 -5 2 -9 11 -9 10 0 14 -3 11 -6
-9 -9 41 -52 78 -67 25 -11 97 -15 115 -7 3 1 8 2 13 1 4 0 7 4 7 10 0 5 5 7
10 4 6 -3 10 -1 10 4 0 6 8 11 17 11 9 0 14 3 10 6 -8 8 18 34 33 34 6 0 8 5
5 10 -3 6 -1 10 4 10 6 0 11 7 11 15 0 26 14 17 40 -25 14 -22 28 -40 33 -40
4 0 6 -4 2 -9 -3 -5 2 -17 11 -25 8 -9 13 -16 9 -16 -4 0 0 -7 7 -15 31 -35
38 -45 38 -60 0 -8 4 -15 9 -15 5 0 16 -15 25 -34 8 -18 22 -39 31 -46 8 -7
15 -20 15 -29 0 -9 9 -23 19 -30 11 -8 17 -20 15 -26 -3 -7 2 -15 10 -18 9 -4
16 -16 16 -28 0 -12 3 -19 7 -16 9 10 45 -52 37 -65 -4 -6 -3 -8 3 -5 6 4 20
-13 32 -38 12 -25 26 -45 31 -45 6 0 9 -6 7 -12 -1 -7 4 -12 12 -10 9 2 12 -4
8 -17 -3 -12 1 -22 9 -25 8 -3 14 -11 14 -17 0 -6 10 -20 22 -30 12 -11 16
-19 8 -19 -8 0 -4 -8 8 -19 12 -10 22 -23 22 -30 0 -6 5 -11 10 -11 6 0 10 -9
10 -20 0 -10 8 -24 18 -29 9 -6 13 -11 7 -11 -5 0 -5 -4 2 -8 6 -4 13 -14 15
-22 2 -8 9 -21 16 -28 7 -8 10 -18 6 -23 -3 -5 0 -8 8 -7 7 2 12 -5 12 -14 -1
-10 3 -16 10 -15 6 1 10 -4 8 -10 -1 -7 2 -13 7 -13 5 0 16 -16 25 -35 9 -19
22 -35 28 -35 5 0 8 -7 4 -15 -3 -8 -1 -15 4 -15 6 0 10 -6 10 -14 0 -8 7 -17
16 -20 8 -3 12 -10 9 -16 -3 -5 -1 -10 4 -10 6 0 11 -5 11 -11 0 -7 8 -18 18
-26 9 -8 11 -11 3 -7 -7 4 -3 -8 10 -27 13 -19 27 -35 32 -37 4 -2 7 -10 7
-18 0 -8 5 -14 11 -14 5 0 8 -4 4 -9 -3 -5 -1 -12 5 -16 6 -4 7 -11 4 -17 -4
-7 -2 -8 4 -4 6 4 18 -8 28 -29 9 -19 21 -35 27 -35 6 0 8 -3 4 -6 -3 -3 11
-29 30 -57 20 -28 36 -57 36 -64 0 -7 6 -14 13 -17 8 -3 11 -12 8 -21 -4 -10
-2 -15 7 -13 8 2 13 -3 11 -10 -1 -6 3 -12 9 -12 5 0 8 -4 5 -9 -3 -5 1 -11 9
-15 8 -3 12 -11 9 -19 -3 -10 -24 -13 -74 -12 -38 0 -72 4 -76 8 -4 4 -12 7
-18 7 -6 0 -5 -4 2 -9 8 -5 -34 -8 -101 -7 -64 1 -119 5 -123 9 -4 4 -12 7
-18 7 -6 0 -6 -4 2 -8 7 -5 -46 -8 -118 -8 -71 0 -124 3 -117 8 9 6 9 8 0 8
-6 0 -15 -5 -18 -10 -5 -8 -12 -7 -23 2 -13 11 -14 11 -8 0 10 -16 -25 -13
-36 3 -5 6 -8 6 -8 -2 0 -7 -16 -12 -41 -11 -27 0 -37 3 -28 9 9 6 10 9 2 9
-6 0 -15 -5 -18 -10 -5 -8 -12 -7 -23 2 -13 11 -14 11 -8 0 10 -16 -25 -13
-36 3 -5 6 -8 6 -8 -2 0 -7 -16 -12 -41 -11 -27 0 -37 3 -28 9 9 6 10 9 2 9
-6 0 -15 -5 -18 -10 -5 -8 -12 -7 -23 2 -13 11 -14 11 -8 0 10 -16 -25 -13
-36 3 -5 6 -8 6 -8 -2 0 -7 -16 -12 -41 -11 -27 0 -37 3 -28 9 9 6 10 9 2 9
-6 0 -15 -5 -18 -10 -5 -8 -12 -7 -23 2 -13 11 -14 11 -8 0 10 -16 -25 -13
-36 3 -5 6 -8 6 -8 -2 0 -7 -16 -12 -41 -11 -27 0 -37 3 -28 9 9 6 10 9 2 9
-6 0 -15 -5 -18 -10 -5 -8 -12 -7 -23 2 -10 9 -13 9 -9 1 5 -8 0 -11 -13 -10
-11 1 -20 6 -20 12 0 5 -4 5 -8 -2 -7 -11 -29 -12 -100 -4 -7 0 -11 5 -8 10 3
5 -1 12 -10 15 -9 4 -14 9 -11 12 3 4 -3 15 -14 27 -10 11 -19 27 -19 34 0 7
-4 13 -10 13 -5 0 -10 7 -10 15 0 8 -9 24 -19 34 -11 11 -17 22 -14 25 4 3 1
6 -6 6 -7 0 -9 5 -6 10 3 6 1 10 -4 10 -6 0 -11 7 -11 15 0 8 -4 15 -10 15 -5
0 -10 7 -10 15 0 8 -5 15 -11 15 -5 0 -7 5 -4 10 3 6 2 10 -4 10 -6 0 -13 11
-17 25 -3 14 -10 25 -15 25 -5 0 -9 7 -9 16 0 9 -5 12 -12 8 -8 -5 -9 0 -6 14
4 13 2 20 -4 16 -5 -3 -12 3 -15 15 -3 12 -9 21 -14 21 -5 0 -9 6 -9 13 0 7
-8 22 -18 33 -11 11 -18 27 -16 37 1 9 -1 15 -5 13 -4 -3 -15 4 -24 15 -10 11
-12 19 -5 19 6 0 1 8 -10 19 -12 10 -22 24 -22 30 0 7 -4 10 -8 7 -4 -2 -9 5
-9 17 -1 12 -7 23 -13 25 -5 2 -10 10 -10 18 0 8 -4 14 -10 14 -5 0 -10 5 -10
11 0 6 -7 17 -15 26 -8 8 -13 18 -10 23 3 4 -2 11 -11 14 -9 4 -14 9 -11 13 4
3 -3 14 -15 24 -11 11 -18 19 -13 19 4 0 2 6 -4 13 -6 8 -7 18 -3 22 4 5 2 5
-4 2 -10 -6 -40 39 -36 56 1 4 -5 7 -13 7 -8 0 -14 3 -13 8 1 4 -3 17 -10 30
-7 12 -10 22 -6 22 4 0 -3 8 -14 19 -12 10 -22 23 -22 30 0 6 -5 11 -11 11 -6
0 -9 7 -6 14 4 10 1 13 -9 9 -10 -3 -12 0 -8 10 3 8 -6 26 -21 41 -14 14 -20
26 -13 26 7 0 2 7 -10 16 -12 8 -20 20 -17 25 4 5 1 9 -4 9 -6 0 -11 7 -11 15
0 8 -6 15 -12 16 -10 0 -10 2 0 6 6 2 10 9 7 14 -3 5 5 25 19 45 14 21 22 42
19 47 -3 6 -1 7 5 3 7 -4 12 -2 12 5 0 7 10 24 23 37 12 14 15 21 7 17 -8 -5
-3 4 12 19 15 16 25 32 22 37 -3 5 2 12 10 15 9 3 16 12 16 20 0 8 5 14 11 14
5 0 7 5 4 10 -3 6 -1 10 4 10 6 0 10 3 9 8 -2 13 14 42 22 37 4 -2 13 13 20
35 7 22 17 37 21 34 5 -3 11 7 15 21 3 14 11 22 17 18 6 -4 8 0 4 9 -8 23 5
32 19 14 6 -9 13 -13 17 -10z m-668 -96 c3 -11 11 -20 17 -20 6 0 8 -3 5 -6
-4 -4 3 -15 15 -25 12 -11 16 -19 8 -19 -7 0 -3 -9 10 -20 13 -11 19 -20 14
-20 -5 0 -1 -5 9 -11 9 -6 15 -14 12 -18 -2 -5 2 -14 10 -21 8 -7 15 -19 15
-26 0 -8 5 -14 10 -14 6 0 10 -7 10 -15 0 -8 5 -15 10 -15 6 0 10 -7 10 -15 0
-8 5 -15 10 -15 6 0 10 -9 10 -20 0 -11 4 -20 8 -20 5 0 15 -12 23 -27 8 -16
23 -36 34 -46 11 -10 14 -16 8 -12 -20 10 -15 -6 8 -26 11 -9 20 -20 20 -23
-3 -24 0 -30 9 -16 8 12 10 9 10 -12 0 -16 5 -28 10 -28 6 0 10 -7 10 -15 0
-8 5 -15 10 -15 6 0 10 -6 10 -12 0 -7 11 -26 24 -43 19 -24 22 -34 13 -52 -5
-12 -14 -20 -18 -17 -5 3 -9 -2 -9 -10 0 -9 -5 -16 -11 -16 -5 0 -7 -5 -4 -11
4 -6 -3 -13 -15 -16 -13 -3 -19 -11 -16 -19 5 -12 -12 -19 -36 -15 -5 0 -8 -4
-8 -9 0 -6 -12 -3 -27 7 -39 24 -53 40 -46 47 4 3 0 6 -9 6 -8 0 -20 11 -26
25 -6 14 -16 25 -22 25 -5 0 -9 6 -8 13 2 6 -3 11 -9 9 -7 -1 -13 4 -13 11 0
32 -162 51 -174 20 -3 -7 -15 -13 -26 -13 -11 0 -20 -3 -20 -7 0 -5 -14 -22
-30 -40 -17 -18 -30 -35 -30 -39 0 -13 -51 -54 -73 -59 -27 -7 -87 28 -87 50
0 9 -4 13 -10 10 -5 -3 -10 3 -10 15 0 12 -4 18 -10 15 -5 -3 -10 0 -10 8 0 8
-7 17 -15 21 -8 3 -12 12 -9 21 3 8 11 12 18 8 6 -3 8 -3 4 2 -9 10 19 65 34
65 6 0 8 3 5 7 -4 3 1 15 10 26 13 15 14 18 3 13 -8 -4 -6 1 5 11 12 10 27 32
35 48 8 17 21 34 28 38 7 5 10 12 7 18 -4 5 -1 9 4 9 6 0 11 7 11 15 0 9 7 18
15 21 8 4 13 10 10 14 -3 4 2 13 10 20 8 7 12 17 8 23 -4 6 0 8 11 4 9 -4 15
-3 12 2 -7 12 23 71 36 71 5 0 7 7 4 16 -5 12 -2 15 9 10 9 -3 13 -2 10 4 -3
6 3 23 14 39 11 15 18 31 14 35 -3 3 1 6 11 6 9 0 15 4 11 9 -3 5 1 15 8 23 8
7 19 23 26 36 15 27 28 28 36 2z m33 -679 c2 -6 9 -8 14 -5 6 4 8 3 5 -3 -3
-5 4 -21 17 -34 13 -14 29 -35 35 -47 7 -13 16 -20 21 -17 5 3 11 -4 15 -15 3
-11 12 -19 18 -17 7 1 11 -2 10 -8 -1 -5 13 -11 30 -11 18 -1 46 -4 62 -6 17
-2 44 3 60 13 37 19 95 76 87 84 -3 3 0 5 6 5 7 0 12 7 12 15 0 9 6 12 15 9 8
-4 15 -12 15 -19 0 -8 5 -17 12 -21 7 -5 8 -2 3 7 -5 8 -4 11 1 6 5 -5 7 -10
4 -11 -3 -2 1 -10 9 -19 7 -10 10 -17 5 -17 -4 0 1 -6 11 -14 10 -7 20 -22 21
-32 2 -10 8 -20 13 -22 6 -2 11 -10 11 -18 0 -9 5 -12 12 -8 6 4 8 3 4 -4 -3
-6 4 -21 16 -33 13 -12 16 -18 8 -13 -8 4 1 -12 20 -36 19 -24 28 -40 20 -36
-8 5 -5 -1 8 -13 12 -12 20 -26 17 -32 -4 -5 1 -9 10 -9 9 0 14 -4 11 -9 -3
-5 1 -14 9 -21 8 -7 15 -18 15 -25 0 -8 4 -15 9 -17 5 -1 11 -10 13 -18 2 -8
11 -23 21 -34 9 -11 17 -26 17 -33 0 -8 5 -11 10 -8 6 3 10 -3 10 -14 0 -10 4
-21 9 -23 5 -1 11 -9 13 -17 2 -8 14 -26 28 -39 16 -16 18 -20 5 -11 -17 12
-17 10 3 -12 12 -14 22 -30 22 -37 0 -6 5 -14 12 -18 7 -5 8 -3 3 6 -5 8 -4
11 3 6 6 -4 8 -14 5 -23 -5 -12 -3 -14 7 -8 10 6 12 4 7 -8 -3 -10 -2 -17 4
-17 6 0 8 -4 5 -8 -3 -5 4 -15 15 -22 10 -8 19 -20 19 -28 0 -7 9 -22 19 -33
26 -28 35 -63 14 -55 -11 4 -13 2 -9 -9 7 -19 1 -19 -18 1 -9 8 -16 11 -16 5
0 -6 -7 -11 -16 -11 -9 0 -12 5 -8 12 5 7 3 8 -7 2 -20 -12 -88 -16 -69 -4 9
6 10 10 3 10 -6 0 -15 -5 -18 -10 -5 -8 -12 -7 -23 2 -10 9 -13 9 -9 1 5 -8 0
-11 -13 -10 -11 1 -20 6 -20 12 0 5 -4 5 -8 -2 -8 -13 -126 -13 -138 0 -4 4
-12 7 -18 7 -6 0 -5 -4 2 -9 8 -5 -34 -8 -101 -7 -64 1 -119 5 -123 9 -4 4
-12 7 -18 7 -6 0 -5 -4 2 -9 8 -5 -34 -8 -101 -7 -64 1 -119 5 -123 9 -4 4
-12 7 -18 7 -6 0 -5 -4 2 -9 8 -5 -34 -8 -101 -7 -64 1 -119 5 -123 9 -4 4
-12 7 -18 7 -6 0 -5 -4 2 -9 8 -5 -34 -8 -101 -7 -64 1 -119 5 -123 9 -4 4
-12 7 -18 7 -6 0 -6 -4 2 -8 7 -5 -46 -8 -118 -8 -71 0 -124 3 -117 8 9 6 9 8
0 8 -6 0 -15 -5 -18 -10 -5 -8 -12 -7 -23 2 -13 11 -14 11 -8 0 10 -16 -25
-13 -36 3 -5 6 -8 6 -8 -2 0 -7 -16 -12 -41 -11 -27 0 -37 3 -28 9 9 6 10 9 2
9 -6 0 -15 -5 -18 -10 -5 -8 -12 -7 -23 2 -13 11 -14 11 -8 0 10 -16 -25 -13
-36 3 -5 6 -8 6 -8 -2 0 -7 -16 -12 -41 -11 -27 0 -37 3 -28 9 8 5 9 9 3 9 -6
0 -14 -3 -18 -7 -10 -10 -38 -13 -60 -7 -13 4 -15 8 -6 14 6 4 12 11 12 16 1
19 11 34 19 28 5 -3 6 2 3 10 -3 9 -1 16 6 16 6 0 8 5 5 10 -3 5 -3 10 2 10 8
0 44 57 40 64 -1 3 9 16 22 30 14 14 20 26 15 26 -5 0 -1 5 9 11 9 6 15 14 12
20 -4 5 -1 9 4 9 6 0 11 7 11 15 0 8 5 15 10 15 6 0 10 7 10 15 0 8 5 15 11
15 5 0 8 4 4 9 -3 6 3 14 12 20 10 6 14 11 9 11 -4 0 3 15 17 34 15 18 23 36
20 40 -4 3 1 6 10 6 9 0 16 3 15 8 -1 4 3 17 10 28 6 12 8 25 4 29 -4 5 0 6 8
3 11 -4 16 1 17 13 1 10 11 28 22 40 11 12 18 26 15 30 -2 4 2 11 10 16 8 4
16 15 18 23 3 13 10 25 33 53 6 7 16 24 24 39 8 15 17 25 22 23 4 -3 5 5 1 17
-3 14 -2 19 6 14 7 -4 12 -2 12 4 0 7 9 24 20 40 11 15 17 30 14 32 -2 3 6 12
20 21 19 13 26 13 34 4 12 -16 26 -50 23 -60 -1 -5 3 -6 9 -2 5 3 10 1 10 -5
0 -6 4 -9 9 -6 5 3 11 -4 14 -15 4 -15 11 -20 21 -16 10 4 16 1 16 -9 0 -10 6
-14 14 -11 7 3 19 0 26 -6 10 -9 11 -9 5 3 -5 9 1 7 15 -5 18 -15 22 -16 18
-4 -5 12 -1 15 17 11 30 -5 103 35 111 61 5 16 8 17 15 6 7 -11 9 -11 9 3 0 9
7 24 16 32 8 9 13 16 10 16 -9 0 29 36 49 47 21 12 68 8 73 -6z"/>
</g>
</svg>
